<svg id="Layer_1" data-name="Layer 1" xmlns="http://www.w3.org/2000/svg" viewBox="0 0 84.743 60.719"><defs><style>.cls-1{fill:#fff;}</style></defs><title>SVG</title><path class="cls-1" d="M47.632,44.725a13.4,13.4,0,0,0-5.319-4.769,1.179,1.179,0,0,0-.673-.31,12.407,12.407,0,0,0-4.223-.977H30.856L24.9,45.6l-5.93-6.929H12.392a12.411,12.411,0,0,0-4.223.977,1.181,1.181,0,0,0-.673.31A13.588,13.588,0,0,0,0,52.053v7.471a1.186,1.186,0,0,0,1.186,1.186H48.623a1.186,1.186,0,0,0,1.186-1.186V52.053A13.483,13.483,0,0,0,47.632,44.725ZM10.2,58.9H7.614V43.443a7.517,7.517,0,0,1,2.585-1.35Zm4.477,0H12.091v-2.8a1.292,1.292,0,0,1,2.585,0Zm.061-10.03a1.292,1.292,0,0,1-2.584,0V41.628a17.925,17.925,0,0,1,2.584-.087Zm21.225-7.328a17.927,17.927,0,0,1,2.585.087v7.241a1.292,1.292,0,0,1-2.585,0ZM38.607,58.9H36.023v-2.8a1.292,1.292,0,0,1,2.585,0Zm4.477,0H40.5V42.093a7.517,7.517,0,0,1,2.585,1.35Z"/><path class="cls-1" d="M11.669,21.7V25.26q0,.593.054,1.186h-.054a2.372,2.372,0,0,1,0-4.744m-2.024-4.4a1.178,1.178,0,0,1,.838-.348H38.946a1.186,1.186,0,0,1,0,2.372H10.484a1.186,1.186,0,0,1-.838-2.024m9.14-11.6v5.32a1.186,1.186,0,0,0,2.372,0V3.914c0-.735.621-1.542,1.186-1.542h4.744c.565,0,1.186.807,1.186,1.542v7.116a1.186,1.186,0,0,0,2.372,0V5.709a10.721,10.721,0,0,1,7.049,8.878H11.736a10.72,10.72,0,0,1,7.049-8.878M37.76,26.446h-.054q.053-.592.054-1.186V21.7a2.372,2.372,0,1,1,0,4.744M35.388,25.26a10.947,10.947,0,0,1-.208,2.118l-.007.039a11.234,11.234,0,0,1-4.133,6.67,10.182,10.182,0,0,1-12.652,0A11,11,0,0,1,17.184,33a11.246,11.246,0,0,1-2.928-5.586l-.007-.038a10.94,10.94,0,0,1-.208-2.118V21.7H35.388ZM11.669,28.818h.484a13.634,13.634,0,0,0,3.32,5.827c.3.31.614.606.94.887v3.13h2.372v-1.5a12.461,12.461,0,0,0,5.929,1.5h0a12.465,12.465,0,0,0,5.929-1.5v1.5h2.372V35.532a13.6,13.6,0,0,0,4.257-6.714h.487a4.741,4.741,0,0,0,3.484-7.959c.075-.063.147-.129.217-.2a3.557,3.557,0,0,0-1.37-5.883A13.09,13.09,0,0,0,30.575,3.2,3.773,3.773,0,0,0,27.087,0H22.343a3.773,3.773,0,0,0-3.489,3.2A13.09,13.09,0,0,0,9.338,14.775a3.556,3.556,0,0,0-1.152,6.083,4.741,4.741,0,0,0,3.483,7.96"/><path class="cls-1" d="M82.372,58.347H77.628v-15.4a11.329,11.329,0,0,1,4.744,9.117Zm-7.116,0H72.884V55.62a1.186,1.186,0,1,0-2.372,0v2.728H61.025V47.793l6.438-6.76h3.05V48.5a1.186,1.186,0,0,0,2.372,0V41.1a10.043,10.043,0,0,1,2.372.579ZM53.91,39.373V37.164a12.491,12.491,0,0,0,11.859,0v2.209L59.839,45.6ZM52.309,33a11.244,11.244,0,0,1-2.928-5.586l-.008-.038a10.941,10.941,0,0,1-.208-2.118V21.7H70.513V25.26a10.947,10.947,0,0,1-.208,2.118l-.007.039a11.235,11.235,0,0,1-4.133,6.67,10.181,10.181,0,0,1-12.652,0A10.961,10.961,0,0,1,52.309,33M46.794,19.331H45.608a1.186,1.186,0,0,1,0-2.372H74.07a1.186,1.186,0,0,1,0,2.372H46.794Zm0,7.116a2.372,2.372,0,1,1,0-4.744V25.26c0,.4.019.791.054,1.186ZM53.91,5.709v5.32a1.186,1.186,0,0,0,2.372,0V3.914c0-.735.621-1.542,1.186-1.542h4.744c.565,0,1.186.807,1.186,1.542v7.116a1.186,1.186,0,0,0,2.372,0V5.709a10.721,10.721,0,0,1,7.049,8.878H46.86A10.72,10.72,0,0,1,53.91,5.709M72.884,26.446H72.83c.035-.394.054-.79.054-1.186V21.7a2.372,2.372,0,0,1,0,4.744m9.682,18.288a13.4,13.4,0,0,0-5.319-4.768,1.179,1.179,0,0,0-.673-.31,12.405,12.405,0,0,0-4.876-.995H68.141V35.532A13.6,13.6,0,0,0,72.4,28.818h.487a4.741,4.741,0,0,0,3.484-7.959c.075-.063.147-.129.217-.2a3.557,3.557,0,0,0-1.37-5.883A13.09,13.09,0,0,0,65.7,3.2,3.773,3.773,0,0,0,62.211,0H57.467a3.773,3.773,0,0,0-3.489,3.2,13.09,13.09,0,0,0-9.516,11.572,3.556,3.556,0,0,0-1.152,6.083,4.741,4.741,0,0,0,3.483,7.96h.484a13.632,13.632,0,0,0,3.32,5.827c.3.31.614.606.94.887v3.13H47.98c-.157,0-.313.006-.469.012a16.51,16.51,0,0,1,2.386,2.36h2.318l6.438,6.76V58.347H53.716v.688a4.144,4.144,0,0,1-.358,1.684h30.2a1.186,1.186,0,0,0,1.186-1.186V52.062a13.483,13.483,0,0,0-2.177-7.328"/></svg>