<svg id="Layer_1" data-name="Layer 1" xmlns="http://www.w3.org/2000/svg" viewBox="0 0 42.143 63.5"><defs><style>.cls-1{fill:#237f70;}</style></defs><title>SVG</title><path class="cls-1" d="M41.138,23.175a3.721,3.721,0,0,0,0-4.749A208.748,208.748,0,0,0,23.862.765,2.992,2.992,0,0,0,21.868,0H5.046L23.472,19.546c.931,1.124.975,1.9,0,2.842L16.183,29.6a3.841,3.841,0,0,0-.883,2.379,3.911,3.911,0,0,0,.883,2.366l7.289,7.4c1.106,1.426,1.106,2.186,0,3.349L5.313,63.5H21.868c.953,0,2.58-.9,4.045-2.326,4.084-3.961,9.9-9.852,15.226-15.89a3.344,3.344,0,0,0,0-4.784l-7.884-7.473a1.046,1.046,0,0,1,.009-1.692Z"/><path class="cls-1" d="M0,6.113C0,2.532,0,0,4.075,0L14.312,10.94V53.246L4.324,63.5C0,63.5,0,62.1,0,57.295Z"/></svg>