<svg id="Layer_1" data-name="Layer 1" xmlns="http://www.w3.org/2000/svg" viewBox="0 0 75.264 70.247"><defs><style>.cls-1{fill:#fff;}</style></defs><title>SVG</title><path class="cls-1" d="M19.373,57.7a4.857,4.857,0,0,1,0,5.018h6.414a4.856,4.856,0,0,1,0-5.018Z"/><circle class="cls-1" cx="30.106" cy="60.211" r="2.509"/><circle class="cls-1" cx="15.053" cy="60.211" r="2.509"/><path class="cls-1" d="M68.26,16.333,52.248,1.466A5.479,5.479,0,0,0,48.513,0H48.14A5.5,5.5,0,0,0,42.65,5.49a5.455,5.455,0,0,0,.4,1.971L12.065,35.123a2.493,2.493,0,0,0-2.244,1.386L7.956,40.238A3.767,3.767,0,0,0,5.017,43.9v5.018a3.728,3.728,0,0,0,.744,2.224,10.027,10.027,0,0,0,4.274,19.1H50.176a10.023,10.023,0,0,0,5.909-18.128L50.016,34.35a6.273,6.273,0,0,0-5.936-4.245H36.447L50.478,14.392l10.988,8.791v1.905A3.768,3.768,0,0,1,57.7,28.851h-2.03L58.2,33.907A9.006,9.006,0,0,0,75.264,29.88V23.834A7.531,7.531,0,0,0,68.26,16.333Zm-56.195,21.3H20.07v2.509H10.81ZM55.194,60.211a5.023,5.023,0,0,1-5.018,5.018H10.035a5.018,5.018,0,0,1,0-10.035H50.176A5.023,5.023,0,0,1,55.194,60.211ZM45.767,45.159l1.478,5.018H32.615V45.159ZM32.615,42.65V37.632H43.552l1.477,5.018ZM44.08,32.615a3.764,3.764,0,0,1,3.561,2.546l5.262,15.4a9.988,9.988,0,0,0-2.726-.386H49.86l-3.9-13.25a2.523,2.523,0,0,0-2.407-1.8H32.615a2.511,2.511,0,0,0-2.509,2.509V50.176H8.781a1.256,1.256,0,0,1-1.254-1.255V43.9A1.256,1.256,0,0,1,8.781,42.65H26.068l1.8-7.185a3.761,3.761,0,0,1,3.652-2.85Zm-11-2.509H31.515a6.264,6.264,0,0,0-6.085,4.751l-1.321,5.285h-1.53V37.632a2.511,2.511,0,0,0-2.509-2.509H15.833L44.48,9.546c.081.074.145.162.231.232l3.8,3.045Zm13.2-22.287a2.981,2.981,0,0,1,1.861-5.31h.372a2.976,2.976,0,0,1,2.029.8L65.931,17.6l-3.3,3.3ZM72.756,27.6H67.738V30.1h4.995a6.487,6.487,0,0,1-12.288,2.681l-.858-1.715a6.282,6.282,0,0,0,4.388-5.982V23.1l4.259-4.259a5.014,5.014,0,0,1,4.344,3.738H67.738v2.509h5.018Z"/><path class="cls-1" d="M10.035,57.7a2.509,2.509,0,1,0,0,5.018h.7a4.861,4.861,0,0,1,0-5.018Z"/><path class="cls-1" d="M34.426,57.7a4.858,4.858,0,0,1,0,5.018h6.414a4.858,4.858,0,0,1,0-5.018Z"/><path class="cls-1" d="M49.479,57.7a4.861,4.861,0,0,1,0,5.018h.7a2.509,2.509,0,0,0,0-5.018Z"/><circle class="cls-1" cx="45.159" cy="60.211" r="2.509"/><circle class="cls-1" cx="48.922" cy="6.272" r="1.254"/></svg>