<svg id="Layer_1" data-name="Layer 1" xmlns="http://www.w3.org/2000/svg" viewBox="0 0 197.146 25.25"><defs><style>.cls-1{fill:#fff;}.cls-2{fill:#fff;}</style></defs><title>SVG</title><path class="cls-1" d="M16.358,9.215a1.48,1.48,0,0,0,0-1.888A83.005,83.005,0,0,0,9.488.3,1.19,1.19,0,0,0,8.7,0H2.006L9.333,7.772c.37.447.388.755,0,1.13l-2.9,2.869a1.527,1.527,0,0,0-.351.946,1.555,1.555,0,0,0,.351.941l2.9,2.942c.44.567.44.869,0,1.332L2.112,25.25H8.7a2.919,2.919,0,0,0,1.608-.925c1.624-1.575,3.936-3.917,6.054-6.318a1.33,1.33,0,0,0,0-1.9l-3.135-2.971a.416.416,0,0,1,0-.673Z"/><path class="cls-1" d="M0,2.431C0,1.007,0,0,1.62,0L5.691,4.35V21.172L1.72,25.25C0,25.25,0,24.693,0,22.782Z"/><path class="cls-2" d="M19.044,11.5h2.394v5.926c0,2.744.953,3.364,4.7,3.364s4.686-.621,4.686-3.364V11.5h2.394v5.926c0,4.133-1.942,5.691-7.08,5.691s-7.1-1.558-7.1-5.691Z"/><path class="cls-2" d="M55,22.951H52.6V11.5h1.692c3.079,0,3.916.988,6.812,4.988,2.728,3.766,2.928,4.034,4.168,4.034h.016V11.5h2.394V22.951h-1.69c-2.829,0-3.683-.9-6.812-5.006-2.93-3.832-3.013-4.016-4.168-4.016H55Z"/><path class="cls-2" d="M98.938,11.5l-4.552,9.189a3.858,3.858,0,0,1-7.165,0L82.669,11.5H85.3l4.317,8.57a1.3,1.3,0,0,0,2.377,0l4.319-8.57Z"/><path class="cls-2" d="M118.361,22.951h-2.394V11.5h1.692c3.079,0,3.916.988,6.812,4.988,2.728,3.766,2.928,4.034,4.168,4.034h.016V11.5h2.394V22.951h-1.692c-2.827,0-3.681-.9-6.811-5.006-2.93-3.832-3.013-4.016-4.168-4.016h-.017Z"/><polygon class="cls-2" points="138.476 22.951 138.476 13.661 132.786 13.661 132.786 11.502 146.561 11.502 146.561 13.661 140.871 13.661 140.871 22.951 138.476 22.951"/><path class="cls-2" d="M148.377,11.5h2.394v5.926c0,2.744.953,3.364,4.7,3.364s4.686-.621,4.686-3.364V11.5h2.394v5.926c0,4.133-1.942,5.691-7.08,5.691s-7.1-1.558-7.1-5.691Z"/><path class="cls-2" d="M82.98,22.951h2.577l-4.7-9.189c-.737-1.424-1.591-2.427-3.55-2.427s-2.827,1-3.547,2.427L69.07,22.951h2.561l1.457-2.829h8.1L80.085,18h-5.91l1.942-3.75a1.292,1.292,0,0,1,2.377,0l1.565,3.05,1.461,2.825h0Z"/><path class="cls-2" d="M194.569,22.951h2.577l-4.7-9.189c-.735-1.424-1.589-2.427-3.549-2.427s-2.827,1-3.547,2.427l-4.688,9.189h2.561l1.457-2.829h8.1L191.676,18h-5.912l1.942-3.75a1.292,1.292,0,0,1,2.377,0l1.337,2.606,1.688,3.269h0Z"/><path class="cls-2" d="M38.241,18.3H49.894V16.156H38.241a6.433,6.433,0,0,0-.087,1.071,6.616,6.616,0,0,0,.087,1.071"/><path class="cls-2" d="M41.023,13.777H50.1V11.5H41.023c-4.1,0-5.524,1.958-5.524,5.724s1.424,5.724,5.524,5.724H50.1V20.656H41.023c-2.24,0-2.911-.835-3.079-2.354a6.706,6.706,0,0,1,0-2.163c.17-1.514.842-2.361,3.078-2.361"/><path class="cls-2" d="M101.609,18.3H113.26V16.156H101.609a6.433,6.433,0,0,0-.087,1.071,6.616,6.616,0,0,0,.087,1.071"/><path class="cls-2" d="M104.389,13.777h9.071V11.5h-9.071c-4.1,0-5.524,1.958-5.524,5.724s1.424,5.724,5.524,5.724h9.071V20.656h-9.071c-2.243,0-2.912-.836-3.079-2.359a6.778,6.778,0,0,1,0-2.142c.167-1.523.836-2.377,3.079-2.377"/><path class="cls-2" d="M176.891,18.1a2.933,2.933,0,0,0,2.342-3.029c0-2.293-1.74-3.566-4.552-3.566H164.74V22.951h2.394v-9.34h7.732a1.734,1.734,0,1,1,0,3.448h-7.433v2.126h7.2c1.521,0,1.874.819,1.874,1.455v2.311h2.476v-2.26a2.623,2.623,0,0,0-2.092-2.594"/></svg>